<?xml version="1.0" standalone="no"?>
<!DOCTYPE svg PUBLIC "-//W3C//DTD SVG 20010904//EN"
 "http://www.w3.org/TR/2001/REC-SVG-20010904/DTD/svg10.dtd">
<svg version="1.0" xmlns="http://www.w3.org/2000/svg"
 width="408.000000pt" height="408.000000pt" viewBox="0 0 408.000000 408.000000"
 preserveAspectRatio="xMidYMid meet">
<metadata>
Created by potrace 1.11, written by Peter Selinger 2001-2013
</metadata>
<g transform="translate(0.000000,408.000000) scale(0.100000,-0.100000)"
fill="#000000" stroke="none">
<path d="M1899 4056 c-2 -2 -33 -6 -69 -10 -90 -8 -118 -12 -223 -35 -702
-153 -1286 -691 -1494 -1376 -71 -232 -92 -385 -88 -635 4 -207 24 -350 76
-528 211 -723 808 -1273 1544 -1421 151 -30 165 -32 370 -35 182 -4 275 4 423
33 397 79 744 265 1035 556 227 226 390 485 487 775 45 133 60 195 95 400 14
80 13 397 -1 505 -18 137 -63 334 -94 410 -4 11 -18 47 -31 80 -145 384 -462
763 -822 984 -225 137 -504 240 -752 276 -22 4 -51 9 -65 11 -31 7 -385 15
-391 10z"/>
</g>
</svg>
